<svg xmlns="http://www.w3.org/2000/svg" xmlns:xlink="http://www.w3.org/1999/xlink" width="720" zoomAndPan="magnify" viewBox="0 0 540 225" height="300" preserveAspectRatio="xMidYMid meet" version="1.0"><defs><g/></defs><g fill="#000000" fill-opacity="1"><g transform="translate(0, 141.018273)"><g><path d="M 135.734375 4.875 C 131.703125 4.875 128.773438 3.085938 126.953125 -0.484375 C 125.140625 -4.054688 124.234375 -8.597656 124.234375 -14.109375 C 124.234375 -19.628906 125.40625 -27.195312 127.75 -36.8125 C 123.207031 -37.195312 115.484375 -38.101562 104.578125 -39.53125 C 86.523438 -17.195312 71.53125 -1.679688 59.59375 7.015625 C 49.332031 14.671875 38.6875 18.5 27.65625 18.5 C 20.644531 18.5 14.640625 16.742188 9.640625 13.234375 C 4.640625 9.734375 2.140625 4.539062 2.140625 -2.34375 C 2.140625 -3.632812 2.460938 -4.832031 3.109375 -5.9375 C 3.765625 -7.039062 4.414062 -7.332031 5.0625 -6.8125 C 5.707031 -6.289062 6.03125 -4.800781 6.03125 -2.34375 C 6.03125 2.070312 7.75 5.382812 11.1875 7.59375 C 14.632812 9.800781 18.820312 10.90625 23.75 10.90625 C 34.394531 10.90625 44.878906 7.429688 55.203125 0.484375 C 65.523438 -6.460938 79.578125 -20.0625 97.359375 -40.3125 C 78.273438 -42.644531 65.6875 -43.8125 59.59375 -43.8125 C 43.101562 -43.8125 32.910156 -38.425781 29.015625 -27.65625 C 28.492188 -26.226562 28.234375 -24.894531 28.234375 -23.65625 C 28.234375 -22.425781 28.492188 -21.320312 29.015625 -20.34375 C 29.535156 -19.375 29.632812 -18.597656 29.3125 -18.015625 C 28.988281 -17.429688 28.4375 -17.171875 27.65625 -17.234375 C 26.875 -17.296875 26.222656 -17.71875 25.703125 -18.5 C 24.273438 -20.96875 23.5625 -23.367188 23.5625 -25.703125 C 23.5625 -33.753906 25.019531 -39.691406 27.9375 -43.515625 C 30.863281 -47.347656 34.273438 -49.785156 38.171875 -50.828125 C 42.835938 -52.117188 48.285156 -52.765625 54.515625 -52.765625 C 60.753906 -52.765625 76.46875 -50.300781 101.65625 -45.375 C 108.664062 -53.425781 119.3125 -66.375 133.59375 -84.21875 C 147.875 -102.070312 155.015625 -111.128906 155.015625 -111.390625 L 155.203125 -111.390625 C 155.328125 -111.515625 155.648438 -111.707031 156.171875 -111.96875 C 159.285156 -113.789062 162.660156 -114.703125 166.296875 -114.703125 C 167.597656 -114.703125 168.25 -114.050781 168.25 -112.75 C 168.25 -112.625 168.179688 -112.460938 168.046875 -112.265625 C 167.921875 -112.066406 167.789062 -111.804688 167.65625 -111.484375 C 167.53125 -111.160156 167.40625 -110.867188 167.28125 -110.609375 C 154.8125 -89.960938 145.140625 -66.722656 138.265625 -40.890625 L 137.671875 -39.53125 L 142.546875 -39.34375 C 143.585938 -39.207031 145.4375 -39.140625 148.09375 -39.140625 C 150.757812 -39.140625 153.582031 -39.753906 156.5625 -40.984375 C 159.550781 -42.222656 161.46875 -43.554688 162.3125 -44.984375 C 163.15625 -46.410156 163.898438 -46.734375 164.546875 -45.953125 C 165.203125 -45.171875 165.269531 -44.328125 164.75 -43.421875 C 163.320312 -40.828125 160.789062 -38.945312 157.15625 -37.78125 C 154.039062 -36.476562 150.957031 -35.828125 147.90625 -35.828125 C 144.851562 -35.828125 142.875 -35.828125 141.96875 -35.828125 L 136.703125 -36.03125 C 134.234375 -24.726562 133 -15.734375 133 -9.046875 C 133 -2.367188 134.816406 0.96875 138.453125 0.96875 C 141.960938 0.96875 147.414062 -1.820312 154.8125 -7.40625 C 162.207031 -12.988281 169.15625 -20.191406 175.65625 -29.015625 C 176.039062 -29.535156 176.554688 -29.664062 177.203125 -29.40625 C 177.859375 -29.144531 178.1875 -28.816406 178.1875 -28.421875 C 178.1875 -28.035156 178.085938 -27.550781 177.890625 -26.96875 C 177.691406 -26.382812 176.6875 -24.925781 174.875 -22.59375 C 169.414062 -15.320312 162.726562 -8.441406 154.8125 -1.953125 C 149.101562 2.597656 142.742188 4.875 135.734375 4.875 Z M 146.4375 -93.078125 C 146.570312 -93.335938 146.734375 -93.691406 146.921875 -94.140625 C 147.117188 -94.597656 147.28125 -94.957031 147.40625 -95.21875 C 131.1875 -73.019531 118.140625 -55.882812 108.265625 -43.8125 L 128.71875 -40.5 C 132.351562 -54.65625 138.257812 -72.179688 146.4375 -93.078125 Z M 146.4375 -93.078125 "/></g></g></g><g fill="#000000" fill-opacity="1"><g transform="translate(165.334821, 141.018273)"><g><path d="M 62.109375 -55.296875 C 65.097656 -55.296875 66.59375 -53.707031 66.59375 -50.53125 C 66.59375 -47.351562 65.097656 -42.972656 62.109375 -37.390625 C 59.128906 -31.804688 56.921875 -27.257812 55.484375 -23.75 C 53.023438 -17.78125 51.796875 -13.007812 51.796875 -9.4375 C 51.796875 -5.875 52.3125 -3.507812 53.34375 -2.34375 C 55.289062 -0.257812 57.953125 -0.160156 61.328125 -2.046875 C 64.703125 -3.929688 69.40625 -7.566406 75.4375 -12.953125 C 81.476562 -18.335938 86.316406 -23.628906 89.953125 -28.828125 C 90.472656 -29.472656 91.085938 -29.632812 91.796875 -29.3125 C 92.515625 -28.988281 92.875 -28.660156 92.875 -28.328125 C 92.875 -28.003906 92.742188 -27.648438 92.484375 -27.265625 C 90.546875 -23.753906 87.039062 -19.269531 81.96875 -13.8125 C 76.90625 -8.363281 72.035156 -3.984375 67.359375 -0.671875 C 62.691406 2.628906 58.085938 4.28125 53.546875 4.28125 C 49.128906 4.15625 46.007812 3.148438 44.1875 1.265625 C 42.375 -0.617188 41.46875 -2.988281 41.46875 -5.84375 C 41.46875 -8.695312 41.726562 -11.453125 42.25 -14.109375 C 42.769531 -16.773438 43.742188 -19.863281 45.171875 -23.375 C 47.503906 -28.945312 49.546875 -33.289062 51.296875 -36.40625 C 53.054688 -39.53125 53.9375 -41.578125 53.9375 -42.546875 C 53.9375 -43.523438 53.414062 -44.015625 52.375 -44.015625 C 50.300781 -44.015625 46.34375 -41.484375 40.5 -36.421875 C 36.46875 -32.648438 30.523438 -25.539062 22.671875 -15.09375 C 14.816406 -4.644531 10.375 0.90625 9.34375 1.5625 C 4.664062 3.894531 1.742188 5.0625 0.578125 5.0625 C -0.585938 5.0625 -1.171875 4.863281 -1.171875 4.46875 C -1.171875 4.082031 -1.039062 3.53125 -0.78125 2.8125 C -0.519531 2.101562 0.742188 -1.425781 3.015625 -7.78125 C 5.285156 -14.144531 7.75 -21.125 10.40625 -28.71875 C 13.070312 -36.3125 14.695312 -40.882812 15.28125 -42.4375 C 15.863281 -44 16.25 -45.332031 16.4375 -46.4375 C 16.632812 -47.539062 16.863281 -48.484375 17.125 -49.265625 C 17.382812 -50.046875 17.867188 -50.921875 18.578125 -51.890625 C 19.296875 -52.867188 20.238281 -53.390625 21.40625 -53.453125 C 22.582031 -53.515625 24.078125 -53.382812 25.890625 -53.0625 C 27.710938 -52.738281 28.625 -51.925781 28.625 -50.625 C 28.625 -49.71875 27.90625 -47.738281 26.46875 -44.6875 C 25.039062 -41.632812 20.953125 -31.148438 14.203125 -13.234375 C 18.878906 -18.953125 24.785156 -25.539062 31.921875 -33 C 39.066406 -40.46875 45.109375 -46.148438 50.046875 -50.046875 C 54.972656 -53.546875 58.992188 -55.296875 62.109375 -55.296875 Z M 62.109375 -55.296875 "/></g></g></g><g fill="#000000" fill-opacity="1"><g transform="translate(244.983746, 141.018273)"><g><path d="M 16.453125 -35.53125 C 22.234375 -40.664062 28.238281 -45.050781 34.46875 -48.6875 C 40.695312 -52.320312 45.628906 -54.59375 49.265625 -55.5 C 52.898438 -56.40625 56.46875 -56.859375 59.96875 -56.859375 C 63.476562 -56.859375 66.789062 -55.691406 69.90625 -53.359375 C 87.695312 -94.640625 104.707031 -115.28125 120.9375 -115.28125 C 126.382812 -115.28125 130.082031 -113.722656 132.03125 -110.609375 C 132.9375 -109.046875 133.390625 -107.679688 133.390625 -106.515625 C 133.390625 -103.273438 131.992188 -99.15625 129.203125 -94.15625 C 126.410156 -89.15625 122.09375 -83.664062 116.25 -77.6875 C 110.414062 -71.71875 102.046875 -64.351562 91.140625 -55.59375 C 80.234375 -46.832031 74.195312 -41.929688 73.03125 -40.890625 C 68.875 -31.285156 65.625 -22.003906 63.28125 -13.046875 C 60.945312 -4.085938 59.78125 2.59375 59.78125 7 C 59.78125 11.414062 60.5625 14.925781 62.125 17.53125 C 62.894531 19.21875 64.0625 20.222656 65.625 20.546875 C 67.1875 20.867188 68.515625 20.671875 69.609375 19.953125 C 70.710938 19.242188 71.554688 18.628906 72.140625 18.109375 C 72.734375 17.585938 73.453125 17.097656 74.296875 16.640625 C 75.140625 16.191406 75.753906 16.097656 76.140625 16.359375 C 76.523438 16.617188 76.460938 17.332031 75.953125 18.5 C 74.910156 19.800781 73.9375 20.90625 73.03125 21.8125 C 70.945312 23.238281 68.507812 23.953125 65.71875 23.953125 C 62.925781 23.953125 61.078125 23.882812 60.171875 23.75 C 53.941406 22.71875 50.828125 18.175781 50.828125 10.125 C 50.828125 2.332031 51.863281 -4.867188 53.9375 -11.484375 C 56.789062 -20.578125 59.390625 -28.109375 61.734375 -34.078125 C 40.960938 -9.929688 26.226562 2.140625 17.53125 2.140625 C 15.445312 2.140625 13.203125 1.519531 10.796875 0.28125 C 8.398438 -0.945312 6.359375 -2.695312 4.671875 -4.96875 C 2.984375 -7.238281 2.140625 -9.671875 2.140625 -12.265625 C 2.140625 -14.859375 2.722656 -17.328125 3.890625 -19.671875 C 6.492188 -25.117188 10.679688 -30.40625 16.453125 -35.53125 Z M 68.359375 -50.234375 C 66.796875 -51.015625 64.066406 -51.40625 60.171875 -51.40625 C 56.273438 -51.40625 51.242188 -49.816406 45.078125 -46.640625 C 38.910156 -43.460938 33.101562 -39.46875 27.65625 -34.65625 C 23.113281 -30.375 19.117188 -25.539062 15.671875 -20.15625 C 12.234375 -14.769531 10.515625 -10.84375 10.515625 -8.375 C 10.515625 -3.570312 11.875 -1.171875 14.59375 -1.171875 C 17.320312 -1.171875 21.476562 -3.378906 27.0625 -7.796875 C 41.476562 -19.609375 54.332031 -31.550781 65.625 -43.625 Z M 125.40625 -99.3125 C 127.09375 -102.425781 127.9375 -105.054688 127.9375 -107.203125 C 127.9375 -109.347656 126.992188 -110.421875 125.109375 -110.421875 C 123.234375 -110.421875 120.738281 -109.25 117.625 -106.90625 C 103.34375 -96 90.425781 -77.757812 78.875 -52.1875 C 87.3125 -57.644531 96.132812 -64.914062 105.34375 -74 C 114.5625 -83.082031 121.25 -91.519531 125.40625 -99.3125 Z M 125.40625 -99.3125 "/></g></g></g><g fill="#000000" fill-opacity="1"><g transform="translate(318.011519, 141.018273)"><g><path d="M 33.5 4.875 C 26.875 4.875 23.5625 0.882812 23.5625 -7.09375 C 23.5625 -15.082031 29.273438 -24.921875 40.703125 -36.609375 C 41.609375 -37.515625 42.253906 -38.226562 42.640625 -38.75 L 44.015625 -40.703125 C 45.828125 -43.171875 46.671875 -44.726562 46.546875 -45.375 L 45.953125 -47.125 C 45.429688 -48.6875 43.289062 -49.820312 39.53125 -50.53125 C 35.769531 -51.25 32.71875 -51.609375 30.375 -51.609375 C 18.695312 -35.117188 11.945312 -25.703125 10.125 -23.359375 C 8.3125 -21.023438 7.078125 -20.050781 6.421875 -20.4375 C 5.773438 -20.832031 5.453125 -21.289062 5.453125 -21.8125 C 5.453125 -22.332031 5.84375 -23.109375 6.625 -24.140625 C 13.632812 -32.710938 19.671875 -41.867188 24.734375 -51.609375 C 23.171875 -51.867188 22 -52.421875 21.21875 -53.265625 C 20.445312 -54.109375 20.382812 -55.535156 21.03125 -57.546875 C 21.675781 -59.554688 23.65625 -62.25 26.96875 -65.625 C 30.28125 -69 33.171875 -71.269531 35.640625 -72.4375 C 38.109375 -73.601562 39.664062 -74.316406 40.3125 -74.578125 C 40.957031 -74.835938 41.671875 -74.96875 42.453125 -74.96875 C 44.003906 -74.96875 43.484375 -72.632812 40.890625 -67.96875 L 33.296875 -55.890625 C 39.140625 -55.492188 44.140625 -55.296875 48.296875 -55.296875 L 55.109375 -55.5 C 57.316406 -55.5 58.9375 -55.207031 59.96875 -54.625 C 61.007812 -54.039062 61.269531 -53.035156 60.75 -51.609375 C 59.84375 -49.140625 57.570312 -45.828125 53.9375 -41.671875 C 46.144531 -32.585938 40.304688 -22.914062 36.421875 -12.65625 C 35.503906 -10.1875 35.046875 -8.046875 35.046875 -6.234375 C 35.046875 -2.460938 36.410156 -0.578125 39.140625 -0.578125 C 40.046875 -0.578125 41.765625 -1.289062 44.296875 -2.71875 C 46.828125 -4.15625 51.078125 -7.566406 57.046875 -12.953125 C 63.023438 -18.335938 67.832031 -23.628906 71.46875 -28.828125 C 71.988281 -29.472656 72.601562 -29.632812 73.3125 -29.3125 C 74.03125 -28.988281 74.390625 -28.660156 74.390625 -28.328125 C 74.390625 -28.003906 74.257812 -27.648438 74 -27.265625 C 72.050781 -23.753906 68.546875 -19.269531 63.484375 -13.8125 C 58.421875 -8.363281 53.488281 -3.953125 48.6875 -0.578125 C 44.007812 3.054688 38.945312 4.875 33.5 4.875 Z M 33.5 4.875 "/></g></g></g><g fill="#000000" fill-opacity="1"><g transform="translate(379.354796, 141.018273)"><g><path d="M 52.765625 -56.671875 C 59.773438 -56.671875 63.28125 -53.296875 63.28125 -46.546875 C 63.28125 -43.035156 62.3125 -40.175781 60.375 -37.96875 C 57.125 -33.164062 51.863281 -28.976562 44.59375 -25.40625 C 37.320312 -21.84375 31.15625 -19.863281 26.09375 -19.46875 C 24.28125 -19.34375 23.304688 -19.863281 23.171875 -21.03125 C 23.046875 -21.550781 23.207031 -21.875 23.65625 -22 C 24.113281 -22.132812 24.472656 -22.203125 24.734375 -22.203125 C 27.710938 -22.460938 31.539062 -23.890625 36.21875 -26.484375 C 44.914062 -31.160156 51.273438 -35.960938 55.296875 -40.890625 C 56.992188 -43.234375 57.84375 -45.472656 57.84375 -47.609375 C 57.84375 -49.753906 56.800781 -50.828125 54.71875 -50.828125 C 53.03125 -50.828125 50.757812 -50.113281 47.90625 -48.6875 C 41.800781 -45.832031 35.375 -40.863281 28.625 -33.78125 C 21.875 -26.707031 17.460938 -19.796875 15.390625 -13.046875 C 14.734375 -10.972656 14.40625 -8.925781 14.40625 -6.90625 C 14.40625 -4.894531 15.25 -2.976562 16.9375 -1.15625 C 18.625 0.65625 21.222656 1.5625 24.734375 1.5625 C 28.628906 1.5625 33.109375 0.519531 38.171875 -1.5625 C 52.835938 -7.53125 64.128906 -16.550781 72.046875 -28.625 C 72.828125 -29.664062 73.539062 -29.859375 74.1875 -29.203125 C 74.707031 -28.953125 74.96875 -28.628906 74.96875 -28.234375 C 74.96875 -27.847656 74.773438 -27.394531 74.390625 -26.875 C 70.492188 -20.382812 65.5625 -14.609375 59.59375 -9.546875 C 48.03125 0.328125 36.800781 5.265625 25.90625 5.265625 C 16.550781 5.265625 9.992188 2.472656 6.234375 -3.109375 C 4.804688 -5.316406 4.09375 -7.976562 4.09375 -11.09375 C 4.09375 -14.21875 4.9375 -17.921875 6.625 -22.203125 C 9.863281 -29.597656 16.804688 -37.191406 27.453125 -44.984375 C 38.097656 -52.773438 46.535156 -56.671875 52.765625 -56.671875 Z M 52.765625 -56.671875 "/></g></g></g><g fill="#000000" fill-opacity="1"><g transform="translate(441.47707, 141.018273)"><g><path d="M 2.71875 74.1875 C 1.675781 74.1875 0.378906 73.992188 -1.171875 73.609375 C -7.796875 71.921875 -11.109375 68.445312 -11.109375 63.1875 C -11.109375 57.925781 -7.695312 51.335938 -0.875 43.421875 C 5.9375 35.503906 20.3125 24.273438 42.25 9.734375 C 54.457031 -15.191406 62.179688 -32.648438 65.421875 -42.640625 C 63.867188 -40.828125 60.816406 -36.898438 56.265625 -30.859375 C 51.722656 -24.828125 47.695312 -19.703125 44.1875 -15.484375 C 40.6875 -11.265625 36.46875 -7.269531 31.53125 -3.5 C 26.601562 0.257812 22.0625 2.140625 17.90625 2.140625 C 13.75 2.140625 10.535156 1.203125 8.265625 -0.671875 C 5.992188 -2.554688 4.726562 -4.535156 4.46875 -6.609375 C 4.207031 -8.691406 4.078125 -10.445312 4.078125 -11.875 C 4.078125 -16.675781 5.378906 -21.484375 7.984375 -26.296875 C 11.867188 -34.210938 17.125 -41.023438 23.75 -46.734375 C 26.21875 -49.066406 28.390625 -50.234375 30.265625 -50.234375 C 32.148438 -50.234375 33.875 -49.648438 35.4375 -48.484375 C 37.125 -46.671875 37.644531 -45.113281 37 -43.8125 C 32.0625 -40.957031 26.410156 -35.441406 20.046875 -27.265625 C 16.671875 -22.847656 14.335938 -17.265625 13.046875 -10.515625 C 12.910156 -9.609375 12.84375 -8.472656 12.84375 -7.109375 C 12.84375 -5.742188 13.394531 -4.640625 14.5 -3.796875 C 15.601562 -2.953125 16.738281 -2.53125 17.90625 -2.53125 C 21.925781 -2.53125 26.144531 -4.671875 30.5625 -8.953125 C 34.976562 -13.242188 39.195312 -17.753906 43.21875 -22.484375 C 47.25 -27.222656 51.828125 -32.90625 56.953125 -39.53125 C 62.078125 -46.15625 65.453125 -50.503906 67.078125 -52.578125 C 68.703125 -54.648438 70.359375 -55.6875 72.046875 -55.6875 C 74.117188 -55.6875 76.257812 -55.101562 78.46875 -53.9375 C 80.675781 -52.769531 81.617188 -51.859375 81.296875 -51.203125 C 80.972656 -50.554688 77.660156 -43.191406 71.359375 -29.109375 C 65.066406 -15.023438 60.492188 -4.929688 57.640625 1.171875 C 60.753906 -0.515625 66.039062 -4.503906 73.5 -10.796875 C 80.96875 -17.097656 87.296875 -23.492188 92.484375 -29.984375 C 93.785156 -31.546875 94.628906 -31.675781 95.015625 -30.375 C 95.148438 -30.113281 95.21875 -29.691406 95.21875 -29.109375 C 95.21875 -28.523438 94.828125 -27.710938 94.046875 -26.671875 C 90.023438 -21.347656 83.597656 -14.660156 74.765625 -6.609375 C 65.941406 1.429688 58.929688 6.878906 53.734375 9.734375 C 42.703125 32.453125 35.304688 46.734375 31.546875 52.578125 C 21.804688 66.984375 12.195312 74.1875 2.71875 74.1875 Z M 38.546875 17.140625 C 22.972656 28.816406 11.84375 38.03125 5.15625 44.78125 C -1.53125 51.539062 -4.875 57.351562 -4.875 62.21875 C -4.875 67.082031 -3.1875 69.515625 0.1875 69.515625 C 2.78125 69.515625 5.765625 68.179688 9.140625 65.515625 C 12.515625 62.859375 15.757812 59.320312 18.875 54.90625 C 22 50.5 24.367188 46.703125 25.984375 43.515625 C 27.609375 40.335938 29.847656 35.664062 32.703125 29.5 C 35.566406 23.332031 37.515625 19.210938 38.546875 17.140625 Z M 38.546875 17.140625 "/></g></g></g></svg>